<?xml version="1.0" encoding="utf-8"?>
<!-- Generator: Adobe Illustrator 19.1.0, SVG Export Plug-In . SVG Version: 6.00 Build 0)  -->
<!DOCTYPE svg PUBLIC "-//W3C//DTD SVG 1.1//EN" "http://www.w3.org/Graphics/SVG/1.1/DTD/svg11.dtd">
<svg version="1.1" id="Layer_1" xmlns="http://www.w3.org/2000/svg" xmlns:xlink="http://www.w3.org/1999/xlink" x="0px" y="0px"
	 viewBox="0 0 465.5 465.5" style="enable-background:new 0 0 465.5 465.5;" xml:space="preserve">
<style type="text/css">
	.st0{fill:#303642;}
</style>
<g>
	<path class="st0" d="M465.5,465.5H0V0h465.5V465.5z M30,435.5h405.5V30H30V435.5z"/>
	<g>
		<rect x="93.8" y="183.6" class="st0" width="278" height="30"/>
		<g>
			<path class="st0" d="M127.7,103.4c2.1-0.1,4.2,0.3,6.2,0.1c7.1,0,15.7-1.8,15.7-10.1c0-6.2-6.1-9.7-13.9-9.7
				c-9.6,0-15.1,4.9-15,13.7h-22c0.4-21.6,16.4-32.8,36.9-32.8c16.8,0,36,7.1,36,26.7c0,8.5-4.6,17.3-13.4,18.8v0.3
				c11.1,2.9,16.5,10.7,16.5,22.2c0,21.8-19.8,31-39.1,31c-22.5,0-41-11.5-39.5-36.3h22c-0.3,11.5,5.5,17.2,17.3,17.2
				c8,0,15.7-3.6,15.7-11.9c0-10.7-7.8-13.2-17.2-13.2c-2.1,0-4.2,0.1-6.2,0.3V103.4z"/>
			<path class="st0" d="M184.5,114.1c0-25.9,10.5-49.5,37.8-49.5c28.3,0,39.4,23.6,39.4,49.5c0,25.8-11.1,49.6-39.4,49.6
				C195,163.7,184.5,139.9,184.5,114.1z M239,114.1c0-12.6-0.4-30.4-15.9-30.4c-15,0-15.8,17.7-15.8,30.4c0,12.6,0.8,30.5,15.8,30.5
				C238.5,144.6,239,126.7,239,114.1z"/>
			<path class="st0" d="M275.5,63.5h25.8v38l32.6-38h32l-36.6,38.9l41.2,60h-32l-26.6-41.6L301.3,132v30.5h-25.8V63.5z"/>
		</g>
		<g>
			<g>
				<path class="st0" d="M94.6,234.3h121.9v34.5h-78.8v33.8h68.1V336h-68.1v63.7H94.6V234.3z"/>
				<path class="st0" d="M372,268.3h-49.3v131.4h-43.1V268.3h-49.4v-34.1H372V268.3z"/>
			</g>
		</g>
	</g>
</g>
</svg>
